<svg xmlns="http://www.w3.org/2000/svg" xmlns:xlink="http://www.w3.org/1999/xlink" width="116" height="164" viewBox="0 0 116 164">
  <defs>
    <clipPath id="clip-path">
      <rect id="사각형_48" data-name="사각형 48" width="116" height="164" transform="translate(-1965 128.091)" fill="#fff" stroke="#707070" stroke-width="1" opacity="0.3"/>
    </clipPath>
  </defs>
  <g id="마스크_그룹_1" data-name="마스크 그룹 1" transform="translate(1965 -128.091)" clip-path="url(#clip-path)">
    <g id="그룹_23" data-name="그룹 23" transform="translate(-1973.344 131.399)">
      <ellipse id="타원_22" data-name="타원 22" cx="112.277" cy="7.057" rx="112.277" ry="7.057" transform="translate(0 146.464)" fill="#f5df4d" opacity="0.1"/>
      <path id="패스_29" data-name="패스 29" d="M1007.25,744.793a7.91,7.91,0,0,1-.171,1.659c-.021.1-.045.214-.068.3-.607,2.436-2.32,4.217-4.365,4.331h-.214c-2.162,0-3.991-1.865-4.594-4.433-.017-.068-.032-.137-.047-.214a7.915,7.915,0,0,1-.171-1.66c0-3.479,2.154-6.3,4.812-6.3S1007.25,741.318,1007.25,744.793Z" transform="translate(-896.545 -596.498)" fill="#3f3d56"/>
      <path id="패스_30" data-name="패스 30" d="M1007.282,744.833a7.914,7.914,0,0,1-.171,1.659c-.021.1-.045.214-.068.3h-.214a9.781,9.781,0,0,1-1.574-.214,9.612,9.612,0,0,1-1.4.321,9.8,9.8,0,0,1-1.1.1h-.372a9.932,9.932,0,0,1-1.318-.088,3.3,3.3,0,0,0-3.183-.214c-.017-.068-.032-.137-.047-.214a7.922,7.922,0,0,1-.171-1.66c0-3.479,2.154-6.3,4.812-6.3S1007.282,741.357,1007.282,744.833Z" transform="translate(-896.577 -596.538)" opacity="0.1"/>
      <path id="패스_31" data-name="패스 31" d="M975.119,661.047a9.738,9.738,0,0,0-1.048-4.406l-5.659,1.76,4.968-2.921a9.776,9.776,0,0,0-7.348-4.19,9.995,9.995,0,0,0-.764-1.009l-8.127,2.53,6.666-3.918a9.782,9.782,0,0,0-15.4,5.214l6.961,8.016-7.551-5.464a13.084,13.084,0,0,0,15.015,17.432,9.782,9.782,0,0,0,11.895-9.549c0-.214,0-.428-.021-.642A9.773,9.773,0,0,0,975.119,661.047Z" transform="translate(-854.149 -524.482)" fill="#f5df4d"/>
      <path id="패스_32" data-name="패스 32" d="M974.914,713.374a26.018,26.018,0,0,0-9.055-.115c-3.4.562-6.871,1.8-10.195.894-1.95-.53-3.636-1.758-5.541-2.438a10.5,10.5,0,0,0-5.721-.344A15.862,15.862,0,0,0,962.788,724.6a9.782,9.782,0,0,0,11.895-9.549c0-.214,0-.428-.021-.642A9.693,9.693,0,0,0,974.914,713.374Z" transform="translate(-854.113 -574.994)" opacity="0.1"/>
      <path id="패스_36" data-name="패스 36" d="M156.735,731.54l4.093-2.414a9.837,9.837,0,0,0-2.094-2.5l-7.722,2.41,6.052-3.559A9.838,9.838,0,0,0,142.5,734.1c0,5.434,4.4,5.622,9.838,5.622s9.838-.188,9.838-5.622a9.784,9.784,0,0,0-.845-3.991Z" transform="translate(-128.064 -585.322)" fill="#f5df4d"/>
      <path id="패스_37" data-name="패스 37" d="M157.752,760.007a7.658,7.658,0,0,0-1.45-1.14,6.788,6.788,0,0,0-2.389-1.166,17.562,17.562,0,0,0-2.352-.066,5.49,5.49,0,0,1-3.595-1.649,11.233,11.233,0,0,0-1.67-1.73,3.675,3.675,0,0,0-2.5-.46,7.2,7.2,0,0,0-.74.152,9.816,9.816,0,0,0-.582,3.338c0,5.434,4.4,5.622,9.838,5.622a20.623,20.623,0,0,0,6.8-.712l-.3-.552A7.72,7.72,0,0,0,157.752,760.007Z" transform="translate(-128.041 -608.504)" opacity="0.1"/>
      <path id="패스_38" data-name="패스 38" d="M299.971,650.2a2.552,2.552,0,0,0-.7,1.009c-.366,1.142.657,2.263.755,3.458a7.488,7.488,0,0,1-.714,2.746,5.926,5.926,0,0,0,2.036,6.287,1.7,1.7,0,0,0,.68.351,1.531,1.531,0,0,0,1.161-.342,3.113,3.113,0,0,0,1.089-1.437,6.236,6.236,0,0,0,.284-1.747l.152-2.288a23.483,23.483,0,0,0-.28-7.2c-.19-.77-.543-2.539-1.433-2.645S300.562,649.628,299.971,650.2Z" transform="translate(-251.16 -525.676)" fill="#3f3d56"/>
      <path id="패스_39" data-name="패스 39" d="M341.24,574.394a75.1,75.1,0,0,0-2.316,11.452,3.206,3.206,0,0,1-.468,1.559c-.656.883-1.972.828-3.062.684a1.286,1.286,0,0,1-1.3-1.542q-1.121-10.924-1.5-21.906c-.011-.28,9.13-.306,9.912.428s.175,3.477,0,4.412A46.4,46.4,0,0,1,341.24,574.394Z" transform="translate(-277.51 -459.694)" fill="#fbbebe"/>
      <path id="패스_40" data-name="패스 40" d="M341.24,574.394a75.1,75.1,0,0,0-2.316,11.452,3.206,3.206,0,0,1-.468,1.559c-.656.883-1.972.828-3.062.684a1.286,1.286,0,0,1-1.3-1.542q-1.121-10.924-1.5-21.906c-.011-.28,9.13-.306,9.912.428s.175,3.477,0,4.412A46.4,46.4,0,0,1,341.24,574.394Z" transform="translate(-277.51 -459.694)" opacity="0.05"/>
      <path id="패스_41" data-name="패스 41" d="M284,542.22l3.7,8.142a39.218,39.218,0,0,1,3.06,8.36,26.7,26.7,0,0,1,.451,3.689,13.9,13.9,0,0,1-.1,3.184c-.135.783-.383,1.544-.492,2.331-.428,3.137,1.349,6.089,2.566,9.008a27.161,27.161,0,0,1,1.985,7.864,6.87,6.87,0,0,0,.832,3.328,9.013,9.013,0,0,1,3.636-.533c.225-1.841-.939-3.537-1.367-5.346-.785-3.315.95-6.8.359-10.154-.321-1.818-1.315-3.529-1.234-5.372.152-3.362.783-6.758.141-10.051-.723-3.723-2.8-7.109-3.261-10.873-.353-2.891.214-6.089-1.4-8.518A9.919,9.919,0,0,0,284,542.22Z" transform="translate(-239.303 -438.314)" fill="#fbbebe"/>
      <path id="패스_42" data-name="패스 42" d="M335.473,768.772a1.211,1.211,0,0,1-1.031-.293,1.146,1.146,0,0,1-.186-.571,28.187,28.187,0,0,1-.257-3.89,2.415,2.415,0,0,1,.287-1.371,3.964,3.964,0,0,1,.661-.642c.567-.524.979-1.283,1.711-1.525a1.843,1.843,0,0,1,1.833.481,3.056,3.056,0,0,1,.813,1.794,5.876,5.876,0,0,0,.438,2.352c.167.267.4.485.588.738.642.855,1.217,2.53-.107,2.876C338.82,769.088,336.929,768.724,335.473,768.772Z" transform="translate(-278.61 -613.736)" fill="#3f3d56"/>
      <path id="패스_43" data-name="패스 43" d="M182.035,308.822a4.2,4.2,0,0,0-.768-4.534,7.847,7.847,0,0,0-4.228-2.282,11.1,11.1,0,0,0-6.478.291,31.817,31.817,0,0,0-4.542,2.6,20.659,20.659,0,0,1-8.715,2.78c-3.422.289-7.243-.16-9.889,2.019-4.846,3.991-1.471,12.983-5.988,17.338-1.219,1.174-2.846,1.809-4.243,2.765s-2.645,2.485-2.421,4.162a4.527,4.527,0,0,0,1.056,2.169,10.512,10.512,0,0,0,9.326,3.736,11.3,11.3,0,0,0,8.341-5.721,7.111,7.111,0,0,1,1.448-2.166c1.349-1.114,3.33-.663,5.079-.716a8.321,8.321,0,0,0,7.763-7.333c.145-1.657-.137-3.586,1.054-4.75.96-.941,2.462-.932,3.775-1.221a7.983,7.983,0,0,0,5.27-4.4c.5-.979.453-2.074,1.2-2.887C179.875,309.77,181.323,310.2,182.035,308.822Z" transform="translate(-121.962 -253.099)" fill="#3f3d56"/>
      <g id="그룹_22" data-name="그룹 22" transform="translate(22.455 48.578)" opacity="0.1">
        <path id="패스_44" data-name="패스 44" d="M206.954,330.008a20.663,20.663,0,0,0,4.185-.8c-.385.053-.77.1-1.157.13-2.682.225-5.616,0-8.033.943C203.6,330.115,205.323,330.145,206.954,330.008Z" transform="translate(-197.256 -323.332)"/>
        <path id="패스_45" data-name="패스 45" d="M187.312,443.769a6.935,6.935,0,0,0-1.448,2.166,11.4,11.4,0,0,1-5.864,5.1c.19-.013.381-.03.571-.053a11.307,11.307,0,0,0,8.341-5.719,7.047,7.047,0,0,1,1.448-2.166l.115-.09A4.586,4.586,0,0,0,187.312,443.769Z" transform="translate(-180 -412.793)"/>
        <path id="패스_46" data-name="패스 46" d="M311.695,304.352a7.9,7.9,0,0,0-4.228-2.282,11.112,11.112,0,0,0-6.48.293l-.137.056a12.432,12.432,0,0,1,3.589.319,7.881,7.881,0,0,1,4.228,2.284,4.2,4.2,0,0,1,.768,4.534c-.712,1.373-2.16.945-2.975,1.833-.749.811-.7,1.908-1.2,2.887a8.328,8.328,0,0,1-4.3,4.11c.669-.158,1.388-.229,2.055-.374a7.989,7.989,0,0,0,5.27-4.4c.507-.979.456-2.077,1.2-2.887.817-.888,2.265-.462,2.975-1.833A4.207,4.207,0,0,0,311.695,304.352Z" transform="translate(-275.005 -301.727)"/>
        <path id="패스_47" data-name="패스 47" d="M260.948,380.827c-1.313.287-2.814.28-3.775,1.219-1.191,1.166-.909,3.095-1.054,4.752a8.356,8.356,0,0,1-4.929,6.67h.195a8.321,8.321,0,0,0,7.761-7.333c.148-1.66-.135-3.589,1.056-4.752a2.909,2.909,0,0,1,.945-.6Z" transform="translate(-235.965 -363.874)"/>
      </g>
      <path id="패스_48" data-name="패스 48" d="M307.513,374.266a1.564,1.564,0,0,1-.883.586c-3.52,1.3-7.224,2.616-10.937,2.07-.139-.584-.276-1.17-.413-1.754q-.3-1.27-.6-2.541c-.094-.4-.19-.813-.267-1.223h0a7.187,7.187,0,0,1-.126-1.972,4.244,4.244,0,0,1,.128-.708,3.68,3.68,0,0,1,.543-1.178c.043-.058.088-.116.135-.171h0a2.7,2.7,0,0,1,.757-.631c.631-.346,1.5-.494,1.752-1.166a1.813,1.813,0,0,0-.028-1.069c-.214-.855-.6-1.66-.84-2.506-.3-1.069.154-1,1.187-1.262a13.105,13.105,0,0,1,5.716-.428,8.21,8.21,0,0,0,.06,2.829,2.775,2.775,0,0,0,1.786,2.047c.135.038.278.062.428.094h0a1.294,1.294,0,0,1,.55.227.938.938,0,0,1,.261.344,2.635,2.635,0,0,1,.182.706q.5,3.366.725,6.764v.086A1.538,1.538,0,0,1,307.513,374.266Z" transform="translate(-247.375 -299.079)" fill="#fbbebe"/>
      <path id="패스_49" data-name="패스 49" d="M260.177,397.668a10.622,10.622,0,0,0-1.313,4.134l-1.553,9a5.431,5.431,0,0,0,.227,3.666,8.815,8.815,0,0,1,.669,1.069,5.913,5.913,0,0,1,.231,1.2c.364,2.064,2.393,3.456,4.429,3.956a2.458,2.458,0,0,0,2.175-.237,1.884,1.884,0,0,0,.263-2.278,5.423,5.423,0,0,0-1.739-1.739l-2.218-1.634,1.283-9.838c.094-.714.428-1.64,1.151-1.561.659.071,1.166,1.031,1.751.721a.87.87,0,0,0,.361-.53,6.471,6.471,0,0,0,.113-2.519l-.265-3.05a11.28,11.28,0,0,1,.287-2.663c.139-1.084-.584-.755-1.476-.522A7.311,7.311,0,0,0,260.177,397.668Z" transform="translate(-218.162 -326.166)" fill="#fbbebe"/>
      <path id="패스_50" data-name="패스 50" d="M346.5,403.538a1.6,1.6,0,0,1-.693.629,7.887,7.887,0,0,1-5.7.8,12.341,12.341,0,0,0-1.356-.316c-.731-.09-1.476.056-2.213,0a6.2,6.2,0,0,1-3.849-2.139c-.624-.642-1.191-1.692-.609-2.38a1.379,1.379,0,0,1,1.272-.385,5.063,5.063,0,0,1,1.3.483,14.3,14.3,0,0,0,4.532,1.249c1.069.111,2.429-.071,2.8-1.086a2.7,2.7,0,0,0-.073-1.553l-1.035-4.2a1.157,1.157,0,0,0-.128-.349.453.453,0,0,0-.062-.081A.969.969,0,0,0,340.2,394a4.447,4.447,0,0,1-2.166-1.1,4.8,4.8,0,0,1-.881-1.418c-.06-.13-.115-.263-.173-.4-.438-1.022-.9-2.07-1.258-3.144a12.869,12.869,0,0,1-.55-2.231c-.094-.657-.145-.958.214-1.249a2.138,2.138,0,0,1,.306-.192c.165-.088.351-.175.547-.259l.19-.079a13.134,13.134,0,0,1,1.8-.573,4.373,4.373,0,0,1,4.087,1.51,9.051,9.051,0,0,1,1.884,4.108c.338,1.486.511,3.009.935,4.472.165.573.37,1.138.511,1.711a16.432,16.432,0,0,1,.323,2.068q.3,2.658.6,5.317A1.754,1.754,0,0,1,346.5,403.538Z" transform="translate(-276.907 -317.25)" fill="#fbbebe"/>
      <path id="패스_51" data-name="패스 51" d="M290.411,453.967c.428,2.729-.8,5.413-1.991,7.913a6.744,6.744,0,0,0,2.3.947,45.751,45.751,0,0,0,16.51,1.243,5.027,5.027,0,0,0-.122-2.755c-.235-.528-.642-.958-.9-1.476a5.581,5.581,0,0,1-.338-2.8l.383-8.09c-2.654-1.223-5.731-.077-8.651.088a37.632,37.632,0,0,0-4.534.169c-.774.139-3.208.522-3.574,1.319S290.281,453.1,290.411,453.967Z" transform="translate(-242.778 -368.449)" fill="#fbbebe"/>
      <path id="패스_52" data-name="패스 52" d="M290.411,453.967c.428,2.729-.8,5.413-1.991,7.913a6.744,6.744,0,0,0,2.3.947,45.751,45.751,0,0,0,16.51,1.243,5.027,5.027,0,0,0-.122-2.755c-.235-.528-.642-.958-.9-1.476a5.581,5.581,0,0,1-.338-2.8l.383-8.09c-2.654-1.223-5.731-.077-8.651.088a37.632,37.632,0,0,0-4.534.169c-.774.139-3.208.522-3.574,1.319S290.281,453.1,290.411,453.967Z" transform="translate(-242.778 -368.449)" opacity="0.05"/>
      <path id="패스_53" data-name="패스 53" d="M290.814,504.973c-2.876-.6-5.7-1.589-8.64-1.657a.764.764,0,0,0-.428.081.772.772,0,0,0-.269.468q-.455,1.572-.815,3.167c-.8,3.535-1.187,7.44.562,10.614a3.145,3.145,0,0,1,1.5-2.566,7.482,7.482,0,0,1,6.009-.53,4.181,4.181,0,0,1,2.432,3.4l10.1.327a.37.37,0,0,0,.471-.4,41.224,41.224,0,0,0-.041-9.754c-.111-.9-.126-2.16-1.144-2.5-1.215-.406-3.135.068-4.433.013a32.83,32.83,0,0,1-5.306-.659Z" transform="translate(-236.149 -411.623)" fill="#3f3d56"/>
      <path id="패스_54" data-name="패스 54" d="M306,395.484l-.032,4.491-10.223.34a29.67,29.67,0,0,0-5.595.545c-.526.12-1.046.269-1.563.417a18.57,18.57,0,0,1-.928-6.054h0a7.958,7.958,0,0,1,.282-1.6c.325-1.129.935-2.194,1.26-3.311h0a5.062,5.062,0,0,0,.214-1.339,6.5,6.5,0,0,0-.214-1.341,4.11,4.11,0,0,1-.133-1.1l.811-.25h0c.023.1.043.19.06.289.034.2.062.411.081.618h0a12.644,12.644,0,0,1,.043,1.546c-.028,1.031-.167,2.179.477,2.994.836,1.046,2.444.883,3.758.622l3.439-.686a4.033,4.033,0,0,0,2.866-1.469,3.265,3.265,0,0,0,.372-1.5v-.1a11.813,11.813,0,0,0-.336-3.377c-.083-.346-.186-.689-.3-1.024h.344a1.294,1.294,0,0,1,.55.227.939.939,0,0,1,.261.344l.19-.079a29.912,29.912,0,0,0,3.7,8.768,4,4,0,0,1,.513,1.007,2.66,2.66,0,0,1,.086.595A3.442,3.442,0,0,1,306,395.484Z" transform="translate(-242.159 -317.977)" fill="#ff6f61"/>
      <circle id="타원_24" data-name="타원 24" cx="6.202" cy="6.202" r="6.202" transform="translate(46.835 51.51)" fill="#fbbebe"/>
      <path id="패스_55" data-name="패스 55" d="M260.177,408.232a10.621,10.621,0,0,0-1.313,4.134l-1.553,9a5.431,5.431,0,0,0,.227,3.666,8.816,8.816,0,0,1,.669,1.069,5.913,5.913,0,0,1,.231,1.2c.364,2.064,2.393,3.456,4.429,3.956a2.458,2.458,0,0,0,2.175-.237,1.884,1.884,0,0,0,.263-2.278A5.423,5.423,0,0,0,263.567,427l-2.218-1.634,1.283-9.838C262.718,414.823,261.168,406.722,260.177,408.232Z" transform="translate(-218.162 -336.73)" fill="#fbbebe"/>
      <path id="패스_56" data-name="패스 56" d="M344.2,409.241c.338,1.486.511,3.009.935,4.472.165.575.37,1.138.511,1.711a16.406,16.406,0,0,1,.323,2.066l.6,5.317a1.763,1.763,0,0,1-.075.984,1.608,1.608,0,0,1-.693.629,7.913,7.913,0,0,1-5.7.8,11.441,11.441,0,0,0-1.356-.317c-.731-.092-1.476.056-2.213,0a6.225,6.225,0,0,1-3.849-2.128c-.624-.642-1.191-1.694-.609-2.382a1.379,1.379,0,0,1,1.272-.385,5.068,5.068,0,0,1,1.3.485,14.345,14.345,0,0,0,4.532,1.247c1.069.113,2.429-.068,2.8-1.086a2.7,2.7,0,0,0-.073-1.553l-1.035-4.2C340.828,414.754,343.867,407.757,344.2,409.241Z" transform="translate(-276.907 -337.508)" fill="#fbbebe"/>
      <path id="패스_57" data-name="패스 57" d="M284.332,320.173c-.276-.99-.663-2.228.113-2.9a1.8,1.8,0,0,1,.967-.37c1.743-.214,3.546.813,5.214.265a2.9,2.9,0,0,0,.554-5.265,5.757,5.757,0,0,0-2.44-.586c-2.213-.2-4.521-.391-6.591.428s-3.815,2.928-3.388,5.111a6.676,6.676,0,0,0,1.5,2.767c.5.631,2.519,3.636,3.33,3.593C284.73,323.152,284.512,320.816,284.332,320.173Z" transform="translate(-235.133 -260.551)" fill="#3f3d56"/>
      <path id="패스_58" data-name="패스 58" d="M305.876,314.016a2.9,2.9,0,0,0-.385-.186,2.9,2.9,0,0,1-1.048,4.9c-1.668.547-3.471-.479-5.214-.265a1.8,1.8,0,0,0-.967.37c-.776.672-.389,1.91-.113,2.9.18.642.4,2.979-.74,3.043h-.019c.353.344.672.569.9.556,1.138-.064.92-2.4.74-3.043-.276-.99-.663-2.228.113-2.9a1.8,1.8,0,0,1,.967-.37c1.743-.214,3.546.813,5.214.265a2.9,2.9,0,0,0,.554-5.265Z" transform="translate(-249.83 -262.664)" opacity="0.1"/>
      <path id="패스_60" data-name="패스 60" d="M244.839,81.877l-3.319,2.1,2.015-3.663a3.281,3.281,0,0,0-2.008-.716h-.053a3.884,3.884,0,0,1-.689-.051l-1.125.712.483-.877a3.982,3.982,0,0,1-1.968-1.5l-2.015,1.283,1.272-2.312a5.894,5.894,0,0,0-4.51-2.28,6.182,6.182,0,0,0-5.163,3.184,3.85,3.85,0,0,1-3.422,1.839h-.113c-2.312,0-4.185,2.62-4.185,5.853s1.873,5.853,4.185,5.853a3.15,3.15,0,0,0,1.459-.366,6.029,6.029,0,0,1,5.064-.1,5.274,5.274,0,0,0,4.307,0,6.042,6.042,0,0,1,5.021.1,3.133,3.133,0,0,0,1.441.357c2.312,0,4.185-2.622,4.185-5.853A7.423,7.423,0,0,0,244.839,81.877Z" transform="translate(-189.022 -74.58)" fill="#f2f2f2"/>
      <path id="패스_61" data-name="패스 61" d="M238.637,118.476a6.178,6.178,0,0,0-3.58.389,5.285,5.285,0,0,1-4.307,0,6.035,6.035,0,0,0-5.064.1,3.155,3.155,0,0,1-1.459.364c-2.053,0-3.762-2.068-4.117-4.8a4,4,0,0,0,1.027-1.106,5.766,5.766,0,0,1,10.3-.036,3.959,3.959,0,0,0,3.411,1.863h.053C236.532,115.253,237.948,116.564,238.637,118.476Z" transform="translate(-189.077 -102.614)" opacity="0.03"/>
      <path id="패스_62" data-name="패스 62" d="M821.545,318.391l-1.655,1.05,1.005-1.828a1.64,1.64,0,0,0-1-.357h-.028a2.016,2.016,0,0,1-.342-.024l-.571.359.242-.438a1.989,1.989,0,0,1-.982-.744l-1.005.642.642-1.153a2.938,2.938,0,0,0-2.25-1.138,3.058,3.058,0,0,0-2.566,1.589,1.925,1.925,0,0,1-1.711.917h-.056c-1.153,0-2.087,1.309-2.087,2.919s.934,2.921,2.087,2.921a1.572,1.572,0,0,0,.727-.182,3.011,3.011,0,0,1,2.526-.051,2.623,2.623,0,0,0,1.069.233,2.68,2.68,0,0,0,1.069-.227,3.017,3.017,0,0,1,2.5.047,1.555,1.555,0,0,0,.719.18c1.153,0,2.087-1.309,2.087-2.921a3.7,3.7,0,0,0-.423-1.794Z" transform="translate(-714.829 -263.395)" fill="#f2f2f2"/>
      <path id="패스_63" data-name="패스 63" d="M818.432,336.626a3.063,3.063,0,0,0-1.788.195,2.626,2.626,0,0,1-2.139,0,3.02,3.02,0,0,0-2.526.049,1.568,1.568,0,0,1-.727.184c-1.024,0-1.876-1.033-2.053-2.393a1.969,1.969,0,0,0,.511-.552,2.875,2.875,0,0,1,5.133-.019,1.972,1.972,0,0,0,1.711.935h.026A2.127,2.127,0,0,1,818.432,336.626Z" transform="translate(-714.845 -277.357)" opacity="0.03"/>
      <path id="패스_64" data-name="패스 64" d="M881.527,182.737l2.658,1.687-1.617-2.936a2.634,2.634,0,0,1,1.608-.573h.043a3.132,3.132,0,0,0,.552-.041l.9.571-.387-.7a3.221,3.221,0,0,0,1.576-1.2l1.615,1.022-1.02-1.852a4.718,4.718,0,0,1,3.614-1.826,4.95,4.95,0,0,1,4.136,2.551,3.09,3.09,0,0,0,2.735,1.473h.09c1.852,0,3.353,2.1,3.353,4.69s-1.5,4.69-3.353,4.69a2.525,2.525,0,0,1-1.168-.293,4.831,4.831,0,0,0-4.063-.079,4.228,4.228,0,0,1-3.45,0,4.838,4.838,0,0,0-4.023.077,2.536,2.536,0,0,1-1.157.287c-1.852,0-3.353-2.1-3.353-4.69A5.963,5.963,0,0,1,881.527,182.737Z" transform="translate(-771.148 -155.01)" fill="#f2f2f2"/>
      <path id="패스_65" data-name="패스 65" d="M907.56,212.044a4.949,4.949,0,0,1,2.874.312,4.228,4.228,0,0,0,3.45,0,4.84,4.84,0,0,1,4.063.081,2.523,2.523,0,0,0,1.168.291c1.645,0,3.013-1.657,3.3-3.849a3.114,3.114,0,0,1-.823-.888,4.626,4.626,0,0,0-8.255-.028,3.171,3.171,0,0,1-2.733,1.5h-.043A3.451,3.451,0,0,0,907.56,212.044Z" transform="translate(-792.17 -177.454)" opacity="0.03"/>
    </g>
  </g>
</svg>
