<svg xmlns="http://www.w3.org/2000/svg" width="24" height="24" viewBox="0 0 24 24">
  <g id="그룹_8" data-name="그룹 8" transform="translate(-236 -926)">
    <rect id="사각형_45" data-name="사각형 45" width="24" height="24" transform="translate(236 926)" fill="none"/>
    <g id="그룹_7" data-name="그룹 7" transform="translate(85.559 589.041)">
      <path id="패스_1" data-name="패스 1" d="M156.038,339a.9.9,0,0,0-.893.907v20.4h1.791V341.283h1.475v2.306a.713.713,0,0,0,.136.422l1.978,2.744V356.87a.655.655,0,0,0,.651.662h.2a.658.658,0,0,0,.655-.662v-5.184h.492v5.184a.657.657,0,0,0,.655.662h.2a.657.657,0,0,0,.655-.662V346.755l1.974-2.744a.713.713,0,0,0,.137-.422v-2.306h1.475v19.024h1.795V339.9a.9.9,0,1,0-1.795,0v.619h-1.479v-.067a.71.71,0,1,0-1.42,0v.067h-4.888v-.067a.712.712,0,1,0-1.424,0v.067h-1.475V339.9A.9.9,0,0,0,156.038,339Zm3.792,2.286h4.888v2.069l-1.557,2.16h-1.775l-1.557-2.16Zm2.446.485a1.614,1.614,0,0,0-1.607,1.62,1.631,1.631,0,0,0,.47,1.149,1.6,1.6,0,0,0,1.137.475,1.622,1.622,0,0,0,0-3.244Z" transform="translate(0)"/>
    </g>
  </g>
</svg>
