<svg xmlns="http://www.w3.org/2000/svg" width="24" height="24" viewBox="0 0 24 24">
  <g id="그룹_29" data-name="그룹 29" transform="translate(-653 -155)">
    <rect id="사각형_49" data-name="사각형 49" width="24" height="24" transform="translate(653 155)" fill="none" opacity="0.23"/>
    <g id="그룹_28" data-name="그룹 28" transform="translate(79.851 33.97)">
      <g id="그룹_27" data-name="그룹 27" transform="translate(583.386 124)">
        <circle id="타원_44" data-name="타원 44" cx="1.329" cy="1.329" r="1.329" transform="translate(0 0)"/>
      </g>
      <path id="패스_66" data-name="패스 66" d="M20.95,67.1a1.55,1.55,0,1,0,1.55,1.55A1.54,1.54,0,0,0,20.95,67.1Z" transform="translate(560.355 71.536)"/>
      <path id="패스_67" data-name="패스 67" d="M25.534,24.828l-1.151-4.672L24.1,13.469l1.041-3.919a.422.422,0,1,0-.819-.2L23.9,10.966a.754.754,0,0,0-.443,0l-.554.2.111-1.683a.421.421,0,0,0-.841-.044l-.133,2.015-.421.155L19.689,10.7a.89.89,0,0,0-.775-.487l-1.329-.089a.937.937,0,0,0-.974.886l-.177,3.609a.655.655,0,0,0-.044.221L16.1,19l-.841,1.218a3.218,3.218,0,0,0-3.033,2.48h0a3.177,3.177,0,0,0,3.1,3.875l4.938-.022h4.561A1.013,1.013,0,0,0,25.534,24.828ZM22.811,12.583l.731-.266-.288,1.063.111,2.613-.62-2.48ZM15.3,25.47a2.037,2.037,0,1,1,2.037-2.037A2.032,2.032,0,0,1,15.3,25.47ZM20,22.126l-3.233-1.55.642-.908a1.09,1.09,0,0,0,.133-.376l.133-2.059.886.044h.177l1.306,1.373Zm1.417.664a.488.488,0,0,0,.022-.177L21.5,18.34a.7.7,0,0,0-.2-.509l-1.749-1.816.2-3.853,1.55.731a.613.613,0,0,0,.288.066.787.787,0,0,0,.221-.044l.133-.044-.044.686,1.639,6.687.155,3.609Z" transform="translate(566 116.753)"/>
    </g>
  </g>
</svg>
